<svg width="240" height="46" viewBox="0 0 240 46" fill="none" xmlns="http://www.w3.org/2000/svg">
<rect y="1" width="240" height="45" rx="5" fill="#EEEEEE"/>
<path d="M32.348 30.78V33.06H18.968L18.488 31.5C19.328 30.56 19.948 29.66 20.348 28.8C20.768 27.94 20.978 26.88 20.978 25.62C20.978 25.1 20.888 24.48 20.708 23.76H17.318V21.84H20.048C19.788 21.14 19.588 20.48 19.448 19.86C19.308 19.22 19.238 18.52 19.238 17.76C19.238 16.48 19.508 15.37 20.048 14.43C20.608 13.47 21.378 12.73 22.358 12.21C23.358 11.69 24.498 11.43 25.778 11.43C27.818 11.43 29.388 12.02 30.488 13.2C31.588 14.38 32.178 15.87 32.258 17.67H29.738C29.698 16.49 29.338 15.54 28.658 14.82C27.998 14.1 27.038 13.74 25.778 13.74C24.618 13.74 23.668 14.08 22.928 14.76C22.208 15.44 21.848 16.48 21.848 17.88C21.848 18.54 21.918 19.17 22.058 19.77C22.198 20.35 22.408 21.04 22.688 21.84H28.508V23.76H23.288C23.468 24.48 23.558 25.1 23.558 25.62C23.558 27.52 22.848 29.24 21.428 30.78H32.348ZM36.1316 30.81C38.6716 28.77 40.6616 27.1 42.1016 25.8C43.5416 24.48 44.7516 23.11 45.7316 21.69C46.7316 20.25 47.2316 18.84 47.2316 17.46C47.2316 16.16 46.9116 15.14 46.2716 14.4C45.6516 13.64 44.6416 13.26 43.2416 13.26C41.8816 13.26 40.8216 13.69 40.0616 14.55C39.3216 15.39 38.9216 16.52 38.8616 17.94H36.2216C36.3016 15.7 36.9816 13.97 38.2616 12.75C39.5416 11.53 41.1916 10.92 43.2116 10.92C45.2716 10.92 46.9016 11.49 48.1016 12.63C49.3216 13.77 49.9316 15.34 49.9316 17.34C49.9316 19 49.4316 20.62 48.4316 22.2C47.4516 23.76 46.3316 25.14 45.0716 26.34C43.8116 27.52 42.2016 28.9 40.2416 30.48H50.5616V32.76H36.1316V30.81ZM53.7174 21.93C53.7174 18.49 54.2774 15.81 55.3974 13.89C56.5174 11.95 58.4774 10.98 61.2774 10.98C64.0574 10.98 66.0074 11.95 67.1274 13.89C68.2474 15.81 68.8074 18.49 68.8074 21.93C68.8074 25.43 68.2474 28.15 67.1274 30.09C66.0074 32.03 64.0574 33 61.2774 33C58.4774 33 56.5174 32.03 55.3974 30.09C54.2774 28.15 53.7174 25.43 53.7174 21.93ZM66.1074 21.93C66.1074 20.19 65.9874 18.72 65.7474 17.52C65.5274 16.3 65.0574 15.32 64.3374 14.58C63.6374 13.84 62.6174 13.47 61.2774 13.47C59.9174 13.47 58.8774 13.84 58.1574 14.58C57.4574 15.32 56.9874 16.3 56.7474 17.52C56.5274 18.72 56.4174 20.19 56.4174 21.93C56.4174 23.73 56.5274 25.24 56.7474 26.46C56.9874 27.68 57.4574 28.66 58.1574 29.4C58.8774 30.14 59.9174 30.51 61.2774 30.51C62.6174 30.51 63.6374 30.14 64.3374 29.4C65.0574 28.66 65.5274 27.68 65.7474 26.46C65.9874 25.24 66.1074 23.73 66.1074 21.93ZM73.8753 33.18C73.3553 33.18 72.9153 33 72.5553 32.64C72.1953 32.28 72.0153 31.84 72.0153 31.32C72.0153 30.8 72.1953 30.36 72.5553 30C72.9153 29.64 73.3553 29.46 73.8753 29.46C74.3753 29.46 74.7953 29.64 75.1353 30C75.4953 30.36 75.6753 30.8 75.6753 31.32C75.6753 31.84 75.4953 32.28 75.1353 32.64C74.7953 33 74.3753 33.18 73.8753 33.18ZM82.3641 27.18C82.5641 28.32 83.0241 29.2 83.7441 29.82C84.4841 30.44 85.4741 30.75 86.7141 30.75C88.3741 30.75 89.5941 30.1 90.3741 28.8C91.1741 27.5 91.5541 25.31 91.5141 22.23C91.0941 23.13 90.3941 23.84 89.4141 24.36C88.4341 24.86 87.3441 25.11 86.1441 25.11C84.8041 25.11 83.6041 24.84 82.5441 24.3C81.5041 23.74 80.6841 22.93 80.0841 21.87C79.4841 20.81 79.1841 19.53 79.1841 18.03C79.1841 15.89 79.8041 14.17 81.0441 12.87C82.2841 11.55 84.0441 10.89 86.3241 10.89C89.1241 10.89 91.0841 11.8 92.2041 13.62C93.3441 15.44 93.9141 18.15 93.9141 21.75C93.9141 24.27 93.6841 26.35 93.2241 27.99C92.7841 29.63 92.0241 30.88 90.9441 31.74C89.8841 32.6 88.4241 33.03 86.5641 33.03C84.5241 33.03 82.9341 32.48 81.7941 31.38C80.6541 30.28 80.0041 28.88 79.8441 27.18H82.3641ZM86.5941 22.8C87.9341 22.8 89.0341 22.39 89.8941 21.57C90.7541 20.73 91.1841 19.6 91.1841 18.18C91.1841 16.68 90.7641 15.47 89.9241 14.55C89.0841 13.63 87.9041 13.17 86.3841 13.17C84.9841 13.17 83.8641 13.61 83.0241 14.49C82.2041 15.37 81.7941 16.53 81.7941 17.97C81.7941 19.43 82.2041 20.6 83.0241 21.48C83.8441 22.36 85.0341 22.8 86.5941 22.8ZM101.261 27.18C101.461 28.32 101.921 29.2 102.641 29.82C103.381 30.44 104.371 30.75 105.611 30.75C107.271 30.75 108.491 30.1 109.271 28.8C110.071 27.5 110.451 25.31 110.411 22.23C109.991 23.13 109.291 23.84 108.311 24.36C107.331 24.86 106.241 25.11 105.041 25.11C103.701 25.11 102.501 24.84 101.441 24.3C100.401 23.74 99.5806 22.93 98.9806 21.87C98.3806 20.81 98.0806 19.53 98.0806 18.03C98.0806 15.89 98.7006 14.17 99.9406 12.87C101.181 11.55 102.941 10.89 105.221 10.89C108.021 10.89 109.981 11.8 111.101 13.62C112.241 15.44 112.811 18.15 112.811 21.75C112.811 24.27 112.581 26.35 112.121 27.99C111.681 29.63 110.921 30.88 109.841 31.74C108.781 32.6 107.321 33.03 105.461 33.03C103.421 33.03 101.831 32.48 100.691 31.38C99.5506 30.28 98.9006 28.88 98.7406 27.18H101.261ZM105.491 22.8C106.831 22.8 107.931 22.39 108.791 21.57C109.651 20.73 110.081 19.6 110.081 18.18C110.081 16.68 109.661 15.47 108.821 14.55C107.981 13.63 106.801 13.17 105.281 13.17C103.881 13.17 102.761 13.61 101.921 14.49C101.101 15.37 100.691 16.53 100.691 17.97C100.691 19.43 101.101 20.6 101.921 21.48C102.741 22.36 103.931 22.8 105.491 22.8Z" fill="#263238"/>
<path d="M125.823 19.954C126.147 19.39 126.627 18.922 127.263 18.55C127.911 18.166 128.661 17.974 129.513 17.974C130.389 17.974 131.181 18.184 131.889 18.604C132.609 19.024 133.173 19.618 133.581 20.386C133.989 21.142 134.193 22.024 134.193 23.032C134.193 24.028 133.989 24.916 133.581 25.696C133.173 26.476 132.609 27.082 131.889 27.514C131.181 27.946 130.389 28.162 129.513 28.162C128.673 28.162 127.929 27.976 127.281 27.604C126.645 27.22 126.159 26.746 125.823 26.182V32.68H124.185V18.136H125.823V19.954ZM132.519 23.032C132.519 22.288 132.369 21.64 132.069 21.088C131.769 20.536 131.361 20.116 130.845 19.828C130.341 19.54 129.783 19.396 129.171 19.396C128.571 19.396 128.013 19.546 127.497 19.846C126.993 20.134 126.585 20.56 126.273 21.124C125.973 21.676 125.823 22.318 125.823 23.05C125.823 23.794 125.973 24.448 126.273 25.012C126.585 25.564 126.993 25.99 127.497 26.29C128.013 26.578 128.571 26.722 129.171 26.722C129.783 26.722 130.341 26.578 130.845 26.29C131.361 25.99 131.769 25.564 132.069 25.012C132.369 24.448 132.519 23.788 132.519 23.032ZM145.349 22.69C145.349 23.002 145.331 23.332 145.295 23.68H137.411C137.471 24.652 137.801 25.414 138.401 25.966C139.013 26.506 139.751 26.776 140.615 26.776C141.323 26.776 141.911 26.614 142.379 26.29C142.859 25.954 143.195 25.51 143.387 24.958H145.151C144.887 25.906 144.359 26.68 143.567 27.28C142.775 27.868 141.791 28.162 140.615 28.162C139.679 28.162 138.839 27.952 138.095 27.532C137.363 27.112 136.787 26.518 136.367 25.75C135.947 24.97 135.737 24.07 135.737 23.05C135.737 22.03 135.941 21.136 136.349 20.368C136.757 19.6 137.327 19.012 138.059 18.604C138.803 18.184 139.655 17.974 140.615 17.974C141.551 17.974 142.379 18.178 143.099 18.586C143.819 18.994 144.371 19.558 144.755 20.278C145.151 20.986 145.349 21.79 145.349 22.69ZM143.657 22.348C143.657 21.724 143.519 21.19 143.243 20.746C142.967 20.29 142.589 19.948 142.109 19.72C141.641 19.48 141.119 19.36 140.543 19.36C139.715 19.36 139.007 19.624 138.419 20.152C137.843 20.68 137.513 21.412 137.429 22.348H143.657ZM149.149 19.738C149.437 19.174 149.845 18.736 150.373 18.424C150.913 18.112 151.567 17.956 152.335 17.956V19.648H151.903C150.067 19.648 149.149 20.644 149.149 22.636V28H147.511V18.136H149.149V19.738ZM170.887 17.956C171.655 17.956 172.339 18.118 172.939 18.442C173.539 18.754 174.013 19.228 174.361 19.864C174.709 20.5 174.883 21.274 174.883 22.186V28H173.263V22.42C173.263 21.436 173.017 20.686 172.525 20.17C172.045 19.642 171.391 19.378 170.563 19.378C169.711 19.378 169.033 19.654 168.529 20.206C168.025 20.746 167.773 21.532 167.773 22.564V28H166.153V22.42C166.153 21.436 165.907 20.686 165.415 20.17C164.935 19.642 164.281 19.378 163.453 19.378C162.601 19.378 161.923 19.654 161.419 20.206C160.915 20.746 160.663 21.532 160.663 22.564V28H159.025V18.136H160.663V19.558C160.987 19.042 161.419 18.646 161.959 18.37C162.511 18.094 163.117 17.956 163.777 17.956C164.605 17.956 165.337 18.142 165.973 18.514C166.609 18.886 167.083 19.432 167.395 20.152C167.671 19.456 168.127 18.916 168.763 18.532C169.399 18.148 170.107 17.956 170.887 17.956ZM181.872 28.162C180.948 28.162 180.108 27.952 179.352 27.532C178.608 27.112 178.02 26.518 177.588 25.75C177.168 24.97 176.958 24.07 176.958 23.05C176.958 22.042 177.174 21.154 177.606 20.386C178.05 19.606 178.65 19.012 179.406 18.604C180.162 18.184 181.008 17.974 181.944 17.974C182.88 17.974 183.726 18.184 184.482 18.604C185.238 19.012 185.832 19.6 186.264 20.368C186.708 21.136 186.93 22.03 186.93 23.05C186.93 24.07 186.702 24.97 186.246 25.75C185.802 26.518 185.196 27.112 184.428 27.532C183.66 27.952 182.808 28.162 181.872 28.162ZM181.872 26.722C182.46 26.722 183.012 26.584 183.528 26.308C184.044 26.032 184.458 25.618 184.77 25.066C185.094 24.514 185.256 23.842 185.256 23.05C185.256 22.258 185.1 21.586 184.788 21.034C184.476 20.482 184.068 20.074 183.564 19.81C183.06 19.534 182.514 19.396 181.926 19.396C181.326 19.396 180.774 19.534 180.27 19.81C179.778 20.074 179.382 20.482 179.082 21.034C178.782 21.586 178.632 22.258 178.632 23.05C178.632 23.854 178.776 24.532 179.064 25.084C179.364 25.636 179.76 26.05 180.252 26.326C180.744 26.59 181.284 26.722 181.872 26.722ZM193.889 17.956C195.089 17.956 196.061 18.322 196.805 19.054C197.549 19.774 197.921 20.818 197.921 22.186V28H196.301V22.42C196.301 21.436 196.055 20.686 195.563 20.17C195.071 19.642 194.399 19.378 193.547 19.378C192.683 19.378 191.993 19.648 191.477 20.188C190.973 20.728 190.721 21.514 190.721 22.546V28H189.083V18.136H190.721V19.54C191.045 19.036 191.483 18.646 192.035 18.37C192.599 18.094 193.217 17.956 193.889 17.956ZM202.595 19.486V25.3C202.595 25.78 202.697 26.122 202.901 26.326C203.105 26.518 203.459 26.614 203.963 26.614H205.169V28H203.693C202.781 28 202.097 27.79 201.641 27.37C201.185 26.95 200.957 26.26 200.957 25.3V19.486H199.679V18.136H200.957V15.652H202.595V18.136H205.169V19.486H202.595ZM212.05 17.956C212.794 17.956 213.466 18.118 214.066 18.442C214.666 18.754 215.134 19.228 215.47 19.864C215.818 20.5 215.992 21.274 215.992 22.186V28H214.372V22.42C214.372 21.436 214.126 20.686 213.634 20.17C213.142 19.642 212.47 19.378 211.618 19.378C210.754 19.378 210.064 19.648 209.548 20.188C209.044 20.728 208.792 21.514 208.792 22.546V28H207.154V14.68H208.792V19.54C209.116 19.036 209.56 18.646 210.124 18.37C210.7 18.094 211.342 17.956 212.05 17.956Z" fill="#546269"/>
</svg>
